#N canvas 827 239 527 327 12;
#X obj 120 20 bng 25 250 50 0 empty empty empty 17 7 0 10 #e3dfd9 #5a5a5a #5a5a5a;
#X obj 120 52 openpanel;
#X msg 120 78 read -resize \$1 sample;
#N canvas 0 0 450 250 (subpatch) 0;
#X array sample 306013 float 0;
#X coords 0 1 306012 -1 200 140 1;
#X restore 449 39 graph;
#X obj 120 107 soundfiler;
#X obj 199 520 tabread4~ sample;
#X floatatom 150 361 5 0 0 0 - - - 12;
#X obj 199 460 phasor~;
#X obj 199 550 out~;
#X obj 199 490 *~;
#X obj 211 426 * 1;
#X floatatom 228 367 5 0 0 0 - - - 12;
#X obj 228 392 t b f;
#X obj 120 254 r \$0-durationInSamples;
#X obj 286 193 s \$0-sampleRate;
#X obj 120 184 s \$0-durationInSamples;
#X obj 150 324 expr $f2 / $f1;
#X obj 274 460 r \$0-durationInSamples;
#X obj 547 449 tabplay~ sample;
#X obj 547 550 out~;
#X obj 547 263 bng 25 250 50 0 empty empty empty 17 7 0 10 #e3dfd9 #5a5a5a #5a5a5a;
#X obj 313 141 samplerate~;
#X obj 319 90 bng 25 250 50 0 empty empty empty 17 7 0 10 #e3dfd9 #5a5a5a #5a5a5a;
#X obj 286 235 r \$0-sampleRate;
#X obj 286 299 t b f;
#X obj 362 338 hsl 128 17 -1 1 0 0 empty empty empty -2 -8 0 10 #e3dfd9 #5a5a5a #5a5a5a 0 1;
#X obj 616 308 - 48000;
#X obj 585 352 random;
#X obj 616 243 r \$0-durationInSamples;
#X obj 120 143 f;
#X msg 589 404 \$1 20000;
#X obj 916 54 bng 25 250 50 0 empty empty empty 17 7 0 10 #e3dfd9 #5a5a5a #5a5a5a;
#X obj 916 86 openpanel;
#X msg 916 112 read -resize \$1 sample;
#X obj 916 141 soundfiler;
#X obj 995 554 tabread4~ sample;
#X obj 995 584 out~;
#X obj 995 524 *~;
#X obj 913 255 r \$0-durationInSamples;
#X obj 1082 227 s \$0-sampleRate;
#X obj 916 218 s \$0-durationInSamples;
#X obj 1070 494 r \$0-durationInSamples;
#X obj 1109 175 samplerate~;
#X obj 1115 124 bng 25 250 50 0 empty empty empty 17 7 0 10 #e3dfd9 #5a5a5a #5a5a5a;
#X obj 1082 269 r \$0-sampleRate;
#X obj 1038 287 t b f;
#X obj 916 177 f;
#X obj 995 449 vline~;
#X obj 894 314 f;
#X obj 860 358 / 1;
#X msg 985 405 0 \, 1 \$1;
#X obj 860 235 bng 25 250 50 0 empty empty empty 17 7 0 10 #e3dfd9 #5a5a5a #5a5a5a;
#X floatatom 942 322 5 0 0 0 - - - 12;
#X obj 985 347 expr 1000* $f1 / $f2;
#X connect 0 0 1 0;
#X connect 1 0 2 0;
#X connect 2 0 4 0;
#X connect 4 0 29 0;
#X connect 5 0 8 0;
#X connect 6 0 10 0;
#X connect 7 0 9 0;
#X connect 9 0 5 0;
#X connect 10 0 7 0;
#X connect 11 0 12 0;
#X connect 12 0 10 0;
#X connect 12 1 10 1;
#X connect 13 0 16 0;
#X connect 16 0 6 0;
#X connect 17 0 9 1;
#X connect 18 0 19 0;
#X connect 20 0 27 0;
#X connect 21 0 14 0;
#X connect 22 0 21 0;
#X connect 22 0 29 0;
#X connect 23 0 24 0;
#X connect 24 0 16 0;
#X connect 24 1 16 1;
#X connect 25 0 11 0;
#X connect 26 0 27 1;
#X connect 27 0 30 0;
#X connect 28 0 26 0;
#X connect 29 0 15 0;
#X connect 30 0 18 0;
#X connect 31 0 32 0;
#X connect 32 0 33 0;
#X connect 33 0 34 0;
#X connect 34 0 46 0;
#X connect 35 0 36 0;
#X connect 37 0 35 0;
#X connect 38 0 48 1;
#X connect 41 0 37 1;
#X connect 42 0 39 0;
#X connect 43 0 42 0;
#X connect 43 0 46 0;
#X connect 44 0 45 0;
#X connect 45 0 53 0;
#X connect 45 1 53 1;
#X connect 46 0 40 0;
#X connect 47 0 37 0;
#X connect 48 0 49 0;
#X connect 49 0 53 0;
#X connect 50 0 47 0;
#X connect 51 0 48 0;
#X connect 52 0 49 1;
#X connect 53 0 50 0;
